<?xml version="1.0" encoding="utf-8"?>
<!-- Generator: Adobe Illustrator 25.2.3, SVG Export Plug-In . SVG Version: 6.00 Build 0)  -->
<svg version="1.1" id="Livello_1" xmlns="http://www.w3.org/2000/svg" xmlns:xlink="http://www.w3.org/1999/xlink" x="0px" y="0px"
	 viewBox="0 0 673.76 378.49" style="enable-background:new 0 0 673.76 378.49;" xml:space="preserve">
<style type="text/css">
	.st0{fill:#0A412D;}
	.st1{fill:#B2C454;}
	.st2{fill:#FFFFFF;}
</style>
<g>
	<path class="st0" d="M381.32,99.22c-17.62,0-33.37,8.02-43.81,20.59l-0.03-0.04c-4.84,4.94-11.72,5.95-17.52,5.95
		c-1.81,0-3.63-0.09-5.41-0.26c-16.26-1.58-30.93-9.49-41.59-22.33c-21.18,8.29-36.19,28.89-36.19,53.01
		c0,53.98,89.84,121.53,100.74,121.53c10.9,0,100.74-69.22,100.74-121.53C438.25,124.71,412.76,99.22,381.32,99.22"/>
	<path class="st1" d="M269.9,34.64c40.3,7.43,69.17,40.27,65.65,76.43c-0.09,0.81-0.24,1.6-0.36,2.4
		c-2.17-5.33-4.91-10.62-8.18-15.73c-6.35-9.99-14.1-18.28-22.47-24.68c5.32,12.77,13.25,28.18,23.06,44.47
		c-4.01,0.59-8.11,0.76-12.3,0.34c-30.86-3-53.27-32.04-50.07-64.85C265.86,46.5,267.5,40.34,269.9,34.64"/>
	<path class="st1" d="M323.7,214.06c-3.36,1.88-6.68,3.82-9.97,5.89c11.12,25.79-0.9,36.35-11.84,20.24
		c-1.16-1.7,1.3-3.66,2.68-1.97c11.79,14.63,10.77,0.4,4.63-14.99c-2.89,1.98-5.03,3.46-7.6,5.9c-1.58,1.48-3.57-1.26-2.04-2.65
		c3.03-2.9,5.1-4.21,8.49-6.54l-6.78-15.57c-3.24,0.91-12.94,3.97-13.3,9.12c-0.18,1.94,2.7,2.89,4.09,3.5
		c1.97,0.81,0.63,3.84-1.33,3.03c-3.24-1.32-6.74-3.68-5.85-7.83c2.19-10.03,28.6-11.64,34.99-25.04c0.96-1.95,5.32,0.95,4.36,2.9
		c-3.27,6.87-10.54,10.49-17.45,12.82c1.02,2.61,4.54,10.35,5.77,13.89c2.99-1.89,6.06-3.58,9.1-5.35
		C323.53,210.33,325.5,213,323.7,214.06"/>
	<path class="st1" d="M356.44,201.95c0,0-0.6-2.61,1.09-2.74c1.04-0.14,2.09,3.49,2.09,3.49c1.49,6.25,1.31,14.39-2.12,16.45
		c-4.85,2.9-9.5-6.35-9.5-6.35c2.85,13.07-10.82,12.9-16.25,4.11c-9.72-15.69,1.62-32.68,11.77-17.49c1.25,1.82-1.82,3.67-2.95,1.77
		c-0.49-0.67-2.85-4.88-4.26-4.03c-10.71,6.26,6.96,27.71,8.26,20.75c0.76-3.83-1.06-7.8-0.74-11.68c0.12-1.28,1.84-2.55,2.93-1.28
		c0,0,7.58,10.24,10.01,8.94C358.26,213.15,357.53,207.24,356.44,201.95"/>
	<path class="st1" d="M363.59,197.1c-1.33-0.48-2.84-0.71-5.86-1.87c0.82,2.57,1.38,4.71,2.02,7.39c0,0,0.32,1.34-1.37,1.47
		c-1.38,0.1-1.87-2.18-1.87-2.18c-0.72-3.74-1.72-7.16-2.38-8.13c-1.63-0.71-3.07-1.78-4.33-3.35c-2.65-3.47-4.48-8.55,0.95-9
		c4.51-0.38,5.27,5.04,5.9,6.9c2.45,3.42,7.03,2.61,9.96,4.96c3.56,2.85,2.76,7.02,3.06,11.01c0.07,0.92,0.43,3.28,0.72,4.15
		c3.59,5.72,5.09-2.89,4.81-8.18c-0.15-2.4-0.53-5.71-1.14-8.88c0,0-0.6-2.61,1.09-2.74c1.04-0.14,2.09,3.49,2.09,3.49
		c0.91,3.8,1.24,7.44,0.96,10.18c-0.34,2.93-0.44,8.38-3.68,10.48c-1.91,1.23-6.58,1.21-8.81-2.11
		C363.92,208.39,365.11,197.64,363.59,197.1"/>
	<path class="st1" d="M396.84,194.29c0.19,1.66-1.88,2.09-2.93,1.28c-4.14-3.3-6.58-11.39-10.07-15.33
		c0.72,2.94,1.81,8.79,2.38,11.74c0.55,2.8,1.13,5.91,0.85,8.8c0.48,3.08-2.04,6.36-4.42,4.01c-6.28-6.2-11.57-17.97-13.68-22.16
		c-0.94-1.84,2.61-4.62,4.23-3.26c4.78,4.37,5.96,12.09,9.55,17.41c-1.15-6.22-1.7-14.24-2.78-20.34c-0.26-1.37,3.43-2.05,4.82-1.2
		c4.83,2.97,5.31,8.47,8.7,12.78c-1-7.43,1.45-21.58,3.55-18.75c11.39,15.66,13.4,25.06,12.76,25.2
		c-2.26,1.99-12.09-21.26-12.71-15.99C395.57,184.54,396.27,188.93,396.84,194.29"/>
	<path class="st2" d="M315.55,153.37c-10.35-26.67-21.85-11.56-15.97-2.72c1.03,1.52-0.59,3.54-1.97,2.18
		c-2.59-2.21-3.66-4.86-3.31-7.71c-6.84,10.75,13.39,42.15,23.5,31.76C322.57,171.26,318.99,162.24,315.55,153.37 M319.06,180.69
		c-17.19,11.88-28.63-10.36-31.08-24.18c-1.01-5.65-2.12-19.4,7.73-15.59c1.28-2.57,2.92-5.89,6.11-6.29
		C315.3,133.07,330.42,172.72,319.06,180.69"/>
	<path class="st2" d="M333.03,161.56c1.33,0.8,2.8,1.31,3.97,0.6c4.24-2.56,4.23-9.42,3.09-13.56
		C336.1,137.41,330.55,157.79,333.03,161.56 M342.26,142.65c3.43,4.54,2.63,13.01,0.25,17.92c-1.25,2.48-3.66,5.39-6.74,5.15
		c-0.38-0.03-0.7-0.1-1.01-0.16c3.39,10.55,5.7,16.8,10.46,26.46c1.1,2.28-1.67,6.23-2.89,3.28c-4.8-11.38-15.01-34.79-20.19-46.5
		c-0.54-1.26,4.55-6.68,4.69-3.72c1.1,2.86,2.11,5.69,3.12,8.52C332.54,146.28,336.91,135.5,342.26,142.65"/>
	<path class="st2" d="M352.47,143.61c2.5-0.2,6.23-3.53,2.96-6.85C350.67,133.95,351.25,140.81,352.47,143.61 M349.23,150.02
		c-7.81-14.61,5.68-21.16,9.95-13.42c0.88,1.67,3.06,6.16-5.49,10.24c2.16,8.62,12.64,8.95,13.15,0.18
		c0.11-2.15-0.09-4.94-0.43-7.58c0,0-0.35-2.5,1.31-2.51c0.93-0.02,1.67,3.45,1.67,3.45c0.32,2.15,0.56,4.28,0.48,6.19
		C369.39,159.29,355.14,161.01,349.23,150.02"/>
	<path class="st2" d="M391.29,146.86c-6.33-2.19-12.81-14.64-14.47-19.11c-0.89,6.49-0.99,17.73,0.67,24
		c0.39,1.4-4.25,1.2-4.94-0.06c-3.36-6.02-8.02-16.82-10.97-23.04c-0.79-1.64,2.85-3.04,4.03-2.1c0.47-0.08,0.96,0.04,1.3,0.6
		c2.54,3.75,3.67,11.86,6.21,15.61c0.82-5.45-1.73-15.76-0.42-21.09c0.3-1.16,3.46-0.6,4.09,0.4c2.34,3.48,10.54,20.37,15.74,21.88
		C397.76,145.45,393.2,147.52,391.29,146.86"/>
</g>
<g>
	<path d="M144.26,295.6c1.59,0.25,1.24,2.49,0.75,3.58c-0.1,2.09-0.25,2.94-0.9,5.92c-0.5,1.59-0.85,3.08-1.39,4.53
		c-0.05,0.1-0.25,0-0.25,0.25c-0.05,0.7-0.4,0.4-0.5,1.19c-0.1,0.9-0.65,1.69-0.7,2.89c-1,0.5-0.85,2.19-1.94,2.59
		c-0.15,1.34-1.09,1.94-1.39,3.13c-1.39,1.24-1.34,1.94-2.59,3.28c-1.24,1.34-2.74,2.39-3.83,3.83c-0.8,0.5-1.59,1-2.39,1.44
		c-0.4,0.9-1.14,1.39-1.94,1.89c-0.6,0.05-0.25,1.04-1.19,0.7c-0.4,0.25-0.45,0.8-0.95,1c-0.5,0.75-1.59,0.95-1.89,1.89
		c-3.38,1.49-5.52,4.23-10.75,3.83c-0.55-0.35-1.29-0.5-1.94-0.75c-0.55-0.7-1.04-1.44-1.64-2.14c-0.3-0.8-0.1-2.14-0.5-2.84
		c0.4-1.39,0.3-1.94,0.5-3.33c-1.59,0.2-1.89,1.74-3.13,2.34c-1.29,0.8-2.24,1.99-3.58,2.89c-0.7,0.5-1.54,1-2.39,1.69
		c-0.55,0.45-1.04,0.85-1.64,1.39c-0.3,0.3-0.7,0.45-1.19,0.75c-0.7,0.4-2.09,1.04-3.33,1.44c-1.54,0.1-2.84-0.1-3.83-0.5
		c-0.65-1.19-1.29-2.49-1.44-4.03c-0.2-2.34,0.95-5.12,0.95-7.66c0.6-1.19,1.19-2.34,1.44-3.83c0.7-0.45,0.85-1.39,1.44-1.89
		c0.1-1,0.55-1.69,1.19-2.19c0.65-1.49,1.74-2.64,2.64-4.03c0.2-0.35,0.2-0.8,0.45-1.19c0.55-0.85,1.54-1.79,2.14-2.89
		c0.5-0.65,1.04-1.19,1.69-1.64c0.15-1,0.9-1.34,2.14-1.19c1.14,0.85,0.45,2.39-0.45,3.08c-0.9,0.7-1.19,1.99-2.39,2.39
		c-0.05,0.9-0.75,1.14-1,1.94c-0.4,0.25-0.7,0.75-0.95,1.19c-0.25,0.4-0.45,0.75-0.7,1.19c-0.5,0.8-1.19,1.64-1.44,2.59
		c-0.9,0.95-1.54,2.14-2.14,3.38c-0.6,1.19-1.04,2.59-1.69,3.78c0.35,1-0.3,1.69-0.45,2.39c-0.15,0.5,0.1,1.05,0,1.44
		c-0.1,0.2-0.7,0.25-0.5,0.75c0.25,1.74-0.2,3.23,1.19,4.53c3.93-0.5,6.32-3.08,9.06-5.03c0.2-0.15,0.45-0.45,0.75-0.5
		c0.35,0,0.6-0.65,0.95-0.95c0.1-0.05,0.4,0.1,0.5,0c0.15-0.2,0.25-0.3,0.45-0.45c0.25-0.25,1.39-0.9,1.44-1.44
		c0-0.4,1.69-0.65,1.69-1.69c0.7-0.4,1.54-1.14,1.89-2.14c0.85-0.5,1.24-1.44,1.89-2.14c0.25-1,0.5-1.89,0.75-2.89
		c0.55-1.34,1.39-2.44,1.64-4.03c1.89-0.75,1.29-3.83,3.38-3.83c1.69,0,1.74,1.54,1.19,2.84c-0.05,0.15-0.25,0-0.25,0.25
		c-0.05,0.35-0.15,0.45-0.25,0.75c-0.75,1.74-1.39,2.99-1.69,4.53c-0.45,0.2-0.65,0.75-0.95,1.19c-0.15,0.2-0.35,0.3-0.45,0.45
		c-0.2,0.2-0.1,0.5-0.25,0.75c-0.5,0.8-1.04,1.59-1.44,2.59c-0.75,1.99-0.9,4.33-1.44,6.72c0.1,0.85,0.65,1.29,0.5,2.39
		c0.4,0.2,0.75,0.55,0.95,0.95c0.35,0,0.7-0.05,0.7,0.25c4.03,0.15,5.72-1.94,8.36-3.09c0.95-0.85,1.89-1.64,2.89-2.39
		c1.99-1.44,3.73-3.13,5.47-4.83c0.7-0.15,1-0.8,1.69-0.95c0.15-0.6,0.85-0.7,0.95-1.39c1,0.05,0.75-1.04,1.44-1.19
		c0.25-0.65,0.95-0.85,1.19-1.44c0.7-0.95,0.75-0.65,1.14-1.89c0.95-0.75,1.29-2.09,1.94-3.08c0.8-0.9,1.44-2.14,1.69-3.13
		c0.6-1.39,0.8-2.54,1.39-3.58c0-0.65,0.35-1.29,0.5-1.89c0.15-0.65,0.1-1.14,0.45-1.69c0.35-1,0.7-1.59,0.65-2.89
		c0.35-1.44,0.45-2.99,0.7-5.37c0.1-0.35,0.45-0.4,0.5-0.75H144.26z"/>
	<path d="M159.49,331.98c-0.75,1.19-7.36,5.12-11.1,5.37c-3.13,0.2-6.02-0.55-7.91-1.84c-1.14-0.15-1.54-1.49-1.44-2.39
		c-0.2-1-0.5-2.24-0.2-3.38c0,0,0.2-0.1,0.2-0.25c0.15-0.5,0.95-2.89,1.54-3.13c0.25-0.7,0.5-1.44,1.19-1.69
		c0.55-1.34,1.89-1.94,2.59-3.08c1.34-0.6,2.64-1.19,3.58-2.19c1.74,0.15,2.44-0.75,4.08-0.7c0.7,0.55,0.75,1.19,0.7,2.14
		c0,0.4-0.1,0.3-0.2,0.5c-0.2,0.35-0.1,1.19-0.5,1.64c0,1.94-1.84,4.08-1.99,5.82c-0.7,0.35-1.19,1.39-1.64,1.94
		c-0.45,0.55-1.14,0.75-1.44,1.39c-1.14,0.4-1.74,1.29-2.89,1.69c0.75,0.65,1.94,0.95,2.64,1.14h0.5c2.64-0.15,6.57-1.79,8.66-3.33
		c0.45-0.35,1.44-0.85,1.89-1.04c0.45-0.15,1.39-0.65,1.89-0.65C159.63,330.03,159.63,331.73,159.49,331.98z M148.19,322.02
		c-1.44,0.8-2.24,2.29-3.58,2.89c-0.9,1.64-3.13,4.48-3.18,7.02c0.75,0.05,1.64-0.35,1.94-0.5c0.6-0.35,0.95-0.55,1.44-0.95
		c1.49-1.19,3.43-4.63,4.33-6.07c0.45-0.7,1-1.44,1-2.39c-0.05-0.15-0.05-0.45-0.25-0.45C149.24,322.02,148.59,321.82,148.19,322.02
		z"/>
	<path d="M207.85,329.44c-0.85,0.45-1.79,1.69-2.59,2.09c-0.85,0.4-0.65,0.75-1.49,1.19c-0.85,0.45-1.49,1.09-2.34,1.54
		c-0.45,0.2-1,0.2-1.44,0.45c-0.5,0.3-0.6,0.55-1.19,0.5c-0.85,0.85-2.39,0.6-3.08,1.59c-1.74,0.2-2.94,0.1-4.58,0.4
		c0-0.5-1-0.1-1.39-0.25c-0.05-0.6-0.95-0.35-1-0.95c-0.45-0.05-0.05-1.04-0.7-0.95c-0.7-0.1-0.9,0.6-1.44,0.7
		c-0.65,0.2-1.59,0.7-2.39,1.19c-0.35,0.25-1.64,0.5-2.39,1c-0.35,0.2-2.29,0.75-3.08,0.7c0.1,0-0.7-0.5-1.19-0.25
		c-1.14-1.04-1.74-2.64-1.19-4.78c0.6-0.65,0.95-1.59,1.19-2.64c0.75-0.65,1.19-1.64,1.89-2.39c1.19-1.49,2.79-2.64,4.08-4.03
		c0.85-0.55,1.64-1.09,2.14-1.94c1.24-0.05,1.59-0.95,2.39-1.39c0.95-0.45,2.14-0.6,2.64-1.44c2.19-0.3,3.58-1.39,5.72-1.69
		c1.74,0.35,2.49,2.09,1.89,4.08c-0.4,0.45-0.7,1-1.39,1.19c0.1,0.5-0.5,0.35-0.5,0.7c-0.05,0.35-0.6,0.2-0.95,0.25
		c-0.9-1.24,0.65-1.79,0.7-2.89c-1.19-0.6-2.04,0.5-3.58,0.25c-0.7,0.5-1.64,0.6-2.39,0.95c-0.7,0.4-1.09,1.04-1.89,1.19
		c-1.34,0.8-2.24,2.09-3.83,2.64c-0.65,0.95-1.39,1.79-2.14,2.64c-0.6,0.2-0.75,0.85-1.19,1.19c-0.45,0.35-0.5,1.09-1.19,1.19
		c-0.4,1.54-1.29,2.49-1.44,4.28c1.44,0.85,2.74-0.4,4.08-0.45c0-0.45,0.4-0.3,0.7-0.5c0.3-0.15,0.45-0.3,0.7-0.45
		c0.45-0.25,1.49-0.25,1.44-1c0.6,0.05,1.14,0.05,1.44-0.25c0.55-0.05,0.45-0.8,1.19-0.7c0.2-1,0.85-1.54,0.95-2.64
		c0.5-0.55,1.19-0.9,1.19-1.89c1.94-0.65,1.99-3.13,4.78-2.89c0.6,0.25,0.6,1.04,0.95,1.44c0.15,1.49-1.14,1.54-1.19,2.89
		c-0.75,0.4-1.19,1.19-1.64,1.89c-0.65,0.25-1,0.75-1.44,1.19c-0.35,0.35-1.29,0.5-0.95,1.44c-0.25,0.85,1.04,0.25,1.19,0.7
		c0.4-0.2,1-0.1,1.44-0.2c0.8-0.25,1.39-0.05,2.14-0.45c0.75-0.35,1.64-0.6,2.39-0.95c1.44-0.65,2.84-1.24,4.28-1.89
		c0.6-0.7,1.29-1.04,1.99-1.44c1-0.55,1.84-1.24,2.99-1.89C207.11,327.75,207.7,329.49,207.85,329.44z"/>
	<path d="M225.87,328.74c0-0.05,0.65,1.89,0.65,1.89s-1.74,1.84-1.79,1.74c-2.59,1.64-5.03,3.78-8.36,4.53
		c-1.59,0.15-3.38-0.1-4.53-0.25c-0.5-0.05-0.65,0-1.19-0.25c-0.1-0.05,0-0.2-0.25-0.25c-0.65,0-1-0.9-1.44-1.44
		c-0.1-1.09,0.35-1.69,0.5-2.59c1.34-1.59,2.09-3.33,3.58-4.78c-0.1-1.04-0.3-2.49-0.75-3.13c-1.44,0.35-5.57,6.27-6.97,6.67
		c0,0-1.79-1.29-1.74-1.24c0.75-0.65,2.09-2.39,2.74-2.89c0.65-0.75,3.08-4.08,3.98-4.53c0.05-0.55,1.64-1.54,2.04-1.89
		c0.25-0.3,0.05-1.24,1.14-0.9c1.14,0.3,1,1.84,1.19,3.13c0.4,0.6,0.55,1.49,0.95,2.14c-0.2,1.14,0.75,1.64,0.75,2.64
		c-0.45,0-0.35,0.7-0.5,0.95c-0.2,0.3-0.55,0.5-0.7,0.7c-0.55,1.39-1.39,1.94-2.14,3.13c-0.25,0.7-1.19,0.7-0.95,1.89
		c0.95,0.55,2.44,0.65,4.03,0.5c2.79-0.3,5.32-2.54,7.22-3.93C224.08,329.94,225.87,328.79,225.87,328.74z"/>
	<path d="M245.47,331.98c-0.75,1.19-7.36,5.12-11.1,5.37c-3.13,0.2-6.02-0.55-7.91-1.84c-1.14-0.15-1.54-1.49-1.44-2.39
		c-0.2-1-0.5-2.24-0.2-3.38c0,0,0.2-0.1,0.2-0.25c0.15-0.5,0.95-2.89,1.54-3.13c0.25-0.7,0.5-1.44,1.19-1.69
		c0.55-1.34,1.89-1.94,2.59-3.08c1.34-0.6,2.64-1.19,3.58-2.19c1.74,0.15,2.44-0.75,4.08-0.7c0.7,0.55,0.75,1.19,0.7,2.14
		c0,0.4-0.1,0.3-0.2,0.5c-0.2,0.35-0.1,1.19-0.5,1.64c0,1.94-1.84,4.08-1.99,5.82c-0.7,0.35-1.19,1.39-1.64,1.94
		c-0.45,0.55-1.14,0.75-1.44,1.39c-1.14,0.4-1.74,1.29-2.89,1.69c0.75,0.65,1.94,0.95,2.64,1.14h0.5c2.64-0.15,6.57-1.79,8.66-3.33
		c0.45-0.35,1.44-0.85,1.89-1.04c0.45-0.15,1.39-0.65,1.89-0.65C245.62,330.03,245.62,331.73,245.47,331.98z M234.18,322.02
		c-1.44,0.8-2.24,2.29-3.58,2.89c-0.9,1.64-3.13,4.48-3.18,7.02c0.75,0.05,1.64-0.35,1.94-0.5c0.6-0.35,0.95-0.55,1.44-0.95
		c1.49-1.19,3.43-4.63,4.33-6.07c0.45-0.7,1-1.44,1-2.39c-0.05-0.15-0.05-0.45-0.25-0.45C235.22,322.02,234.58,321.82,234.18,322.02
		z"/>
	<path d="M309.37,326.4c-1.34,2.04-2.94,1.39-4.93,2.24c-1.89,0.3-3.18,0.8-4.98,1.19c-0.55,0.1-1.29-0.05-1.69,0.5
		c-0.55-0.2-1.19-0.25-1.64-0.5c-0.95,0.6-1.44,2.44-2.19,3.33c-1.84,2.24-6.12,5.32-9.7,5.32c-1.99,0-2.69-1.99-2.69-3.93
		c0-1.79,0.75-3.68,0.95-5.22c-1.09,0.1-1.49,0.95-2.14,1.44c-0.7,0.55-1.39,1.09-2.14,1.44c-0.9,0.9-1.59,1.94-2.89,2.39
		c-0.65,1.04-2.09,1.24-2.89,2.14c-2.24,0.55-4.48,2.29-6.97,2.29c-0.6,0-1.19-0.1-1.84-0.35c-0.55-0.85-0.8-1.74-0.8-2.64
		c0-0.6,0.1-1.14,0.3-1.69c0.45-0.45,0.15-0.9,0.5-1.64c0.05-0.15,0.4-0.4,0.45-0.5c0.2-0.4,0.1-0.65,0.25-0.95
		c0.1-0.2,0.45-0.35,0.5-0.5c0.2-0.45,0.05-1.14,0.45-1.44c0.3-0.75,0.8-1.34,1.19-2.14c0.1-0.15,0.1-0.5,0.25-0.7
		c0.05-0.1,0.45-0.15,0.5-0.25c0.15-0.35,0.2-0.55,0.45-0.95c0.25-0.35,0.75-0.65,0.75-1.19c0.05,0.05,0.15,0.05,0.2,0.05
		c0.65,0,2.64-3.28,4.38-3.28c0.55,0,1.39,0.5,1.39,1.09c0,0.5-1.29,1.89-1.44,1.89c-0.4,0.25-2.54,1.94-3.33,2.89
		c-0.55,0.6-0.7,1.44-1.44,1.89c-0.75,2.69-2.39,4.48-2.89,7.41c0.35,0.3,0.7,0.4,1.09,0.4c1.04,0,2.09-1,3.23-1.14
		c1.04-0.4,1.69-1.29,3.08-1.39c0.9-0.55,1.64-1.29,2.64-1.69c0.45-0.6,2.99-2.89,3.23-2.89c0.5,0,4.18-3.13,4.88-4.28
		c0.95-1.54,2.79-3.83,4.08-3.83c0,0.45,0.5,0.1,0.5,0.35c0,0.1-0.05,0.25-0.05,0.35c0,0.25,0.4,0.45,0.4,0.85
		c0,0.75-0.65,1.04-1.09,1.79c-1.84,4.28-3.13,6.92-3.13,9.95c0,0.9,0.05,1.49,1.44,1.49c1.29,0,0.95-0.55,1.44-0.9
		c0.3-0.2,0.65-0.05,0.95-0.25c0.15-0.1,0.55-0.6,0.75-0.75c2.19-1.39,4.53-3.43,5.72-6.17c-0.05-0.85-0.3-1.54-0.3-2.49
		c0-1,0.45-1.94,1-2.54c0.1-0.85,0.4-1.54,1.19-1.69c1.09,0.25,1.34,0.95,1.34,1.89c0,1.09-0.35,2.49-0.35,3.63
		c0.3,0.5,0.75,0.65,1.24,0.65c2.39,0,4.23-1.09,7.07-1.64c0.85-0.35,2.14-1.14,3.23-1.14C309.52,324.61,309.22,325.76,309.37,326.4
		z"/>
	<path d="M320.22,320.13c-2.14,0.55-2.74,2.69-5.03,3.08c-0.5,1-2.64,3.08-2.64,3.13c-0.2,0.15-0.6,0.15-0.95,0.45
		c-0.7,0.65-1.29,1.44-2.14,1.94c-0.65,1.09-1.99,1.49-2.14,3.08c-1.44,0.4-2.04,1.84-2.89,2.89c-0.35,0.45-1.19,0.95-1.19,1.44
		c0,0.35-1.39,1.64-1.49,1.64c-0.8,0-0.85,0.75-1.69,0.75c-0.45,0-0.65-1-0.65-1.49c0-1.69,1.69-2.64,2.39-4.03
		c1-1.24,1.84-3.78,2.64-3.83c0.1-0.55,0.25-1,0.75-1.19c1.74-2.44,3.43-4.98,5.47-7.17c0.95-0.4,0.95-1.74,1.89-2.14
		c1.49-1.74,2.79-3.43,4.78-5.72c0.2-0.2,0.6-0.3,0.75-0.5c0.15-0.2,0.05-0.5,0.2-0.7c0.65-0.7,1.54-1.24,2.19-1.89
		c0.7-0.75,1.19-1.64,1.89-2.39c1.84-1.99,4.13-3.93,6.47-5.77c0.2,0.15,0.35,0.2,0.5,0.2c0.3,0,0.6-0.15,0.85-0.15
		c0.2,0,0.55,0.05,0.55,0.4c0,1.04-0.85,1.24-1.19,1.94c-1.24,0.55-0.95,2.49-3.08,2.64c-0.65,0.95-2.99,3.04-2.99,3.23
		c-0.05,0-0.15-0.05-0.2-0.05c-0.1,0-0.45,0.05-0.45,0.3c0,0.1,0.05,0.25,0.05,0.3s-2.84,3.38-3.53,3.38c-0.2,0-0.2,0.6-0.3,0.75
		c-0.15,0.15-0.75,0.35-0.75,0.5c0,0.1,0.05,0.25,0.05,0.35c0,0.25-1.24,0.3-1.24,1.09c0,0.1,0.05,0.15,0.05,0.2
		c-0.7,0.2-1.04,0.75-1.24,1.44c-1.34,0.2-1.29,1.84-2.59,2.14c-0.05,1.29-1.84,3.28-2.14,3.33c-0.45,0.2-0.75,0.35-0.75,0.95
		c0.1,0.05,0.25,0.1,0.3,0.1s2.79-1.89,3.78-3.43c0.1,0.05,0.15,0.05,0.25,0.05c0.7,0,0.95-1.19,1.64-1.24
		c0.7-0.05,1.29-1.24,2.14-1.44c1.39-0.75,2.34-1.99,4.08-2.39c0.35,0.55,0.8,0.95,1.19,1.44c-0.05,1.09-0.95,1.69-0.95,2.34
		c0,0.85-1.99,2.94-2.19,3.13c-0.2,0.3-1.09,1.19-1.39,2.39c-1.09,0.55-1.29,2.39-2.64,3.58c-0.75,1.34-1.54,2.64-2.39,3.83
		c-0.05,0.1-0.1,0.2-0.1,0.25c0,0.3,0.3,0.5,0.3,0.6c0,0.05-0.05,0.1-0.2,0.1c-0.25,0.2-0.35,0.45-0.5,0.75
		c0.35,0.65,1,0.8,1.59,0.8c0.7,0,1.29-0.2,2.09-0.2c0.3-0.35,1.69-0.6,2.69-1.09c1.14-0.35,2.09-1.44,3.38-1.99
		c0.8-0.35,1.54-0.9,2.34-1.69c0.35-0.45,1.99-1.69,2.54-1.69c0.4,0,0.95,0.45,0.95,1.09c0,1.44-2.04,2.49-3.08,3.38
		c-0.3,0.4-1.49,1.19-2.34,1.54c-2.84,1.19-5.92,3.04-9.4,3.04c-1.54,0-3.18-0.4-3.18-1.99c0-1.04,0.3-1.64,0.3-2.89
		c0.7-0.15,0.4-1.34,1.19-1.44c-0.05-0.05-0.05-0.15-0.05-0.2c0-0.9,1.09-1.59,1.49-2.19c0.5-0.8,0-1.14,1.44-2.39
		c0.35-1.29,1.44-1.89,1.89-3.08C318.42,322.77,320.22,320.68,320.22,320.13z"/>
	<path d="M357.44,329.44c-0.85,0.45-1.79,1.69-2.59,2.09c-0.85,0.4-0.65,0.75-1.49,1.19c-0.85,0.45-1.49,1.09-2.34,1.54
		c-0.45,0.2-1,0.2-1.44,0.45c-0.5,0.3-0.6,0.55-1.19,0.5c-0.85,0.85-2.39,0.6-3.08,1.59c-1.74,0.2-2.94,0.1-4.58,0.4
		c0-0.5-1-0.1-1.39-0.25c-0.05-0.6-0.95-0.35-1-0.95c-0.45-0.05-0.05-1.04-0.7-0.95c-0.7-0.1-0.9,0.6-1.44,0.7
		c-0.65,0.2-1.59,0.7-2.39,1.19c-0.35,0.25-1.64,0.5-2.39,1c-0.35,0.2-2.29,0.75-3.08,0.7c0.1,0-0.7-0.5-1.19-0.25
		c-1.14-1.04-1.74-2.64-1.19-4.78c0.6-0.65,0.95-1.59,1.19-2.64c0.75-0.65,1.19-1.64,1.89-2.39c1.19-1.49,2.79-2.64,4.08-4.03
		c0.85-0.55,1.64-1.09,2.14-1.94c1.24-0.05,1.59-0.95,2.39-1.39c0.95-0.45,2.14-0.6,2.64-1.44c2.19-0.3,3.58-1.39,5.72-1.69
		c1.74,0.35,2.49,2.09,1.89,4.08c-0.4,0.45-0.7,1-1.39,1.19c0.1,0.5-0.5,0.35-0.5,0.7c-0.05,0.35-0.6,0.2-0.95,0.25
		c-0.9-1.24,0.65-1.79,0.7-2.89c-1.19-0.6-2.04,0.5-3.58,0.25c-0.7,0.5-1.64,0.6-2.39,0.95c-0.7,0.4-1.09,1.04-1.89,1.19
		c-1.34,0.8-2.24,2.09-3.83,2.64c-0.65,0.95-1.39,1.79-2.14,2.64c-0.6,0.2-0.75,0.85-1.19,1.19c-0.45,0.35-0.5,1.09-1.19,1.19
		c-0.4,1.54-1.29,2.49-1.44,4.28c1.44,0.85,2.74-0.4,4.08-0.45c0-0.45,0.4-0.3,0.7-0.5c0.3-0.15,0.45-0.3,0.7-0.45
		c0.45-0.25,1.49-0.25,1.44-1c0.6,0.05,1.14,0.05,1.44-0.25c0.55-0.05,0.45-0.8,1.19-0.7c0.2-1,0.85-1.54,0.95-2.64
		c0.5-0.55,1.19-0.9,1.19-1.89c1.94-0.65,1.99-3.13,4.78-2.89c0.6,0.25,0.6,1.04,0.95,1.44c0.15,1.49-1.14,1.54-1.19,2.89
		c-0.75,0.4-1.19,1.19-1.64,1.89c-0.65,0.25-1,0.75-1.44,1.19c-0.35,0.35-1.29,0.5-0.95,1.44c-0.25,0.85,1.04,0.25,1.19,0.7
		c0.4-0.2,1-0.1,1.44-0.2c0.8-0.25,1.39-0.05,2.14-0.45c0.75-0.35,1.64-0.6,2.39-0.95c1.44-0.65,2.84-1.24,4.28-1.89
		c0.6-0.7,1.29-1.04,1.99-1.44c1-0.55,1.84-1.24,2.99-1.89C356.69,327.75,357.29,329.49,357.44,329.44z"/>
	<path d="M373.36,333.57c-1.19,0.55-1.74,1.19-2.54,1.59c-0.5,0.25-1.34,1-2.14,1.24c-0.15,0-0.9,0.35-1.04,0.45
		c-0.3,0.1-0.35,0.3-0.95,0.45c-0.3,0.1-1.19,0.4-1.64,0.5c-0.75,0.2,0.05-0.15-1,0.1c-0.5,0.1-0.95,0.2-1.44,0.5
		c-1.04-0.45-2.84-0.2-4.28-0.25c-0.3-0.5-1.04-0.55-1.69-0.75c-0.6-1-1.89-1.89-2.14-3.58c-0.2-1.24,0.15-2.49,0.5-3.78
		c0.6-1.24,0.95-3.43,1.64-4.08c1.19-1.94,1.99-4.28,3.38-5.97c-0.35-0.4-1.19-0.35-1.94-0.25c-0.55,0.1-1.74,0.35-2.84,0.5
		c-1.54,0.15-3.58,0.9-4.08-0.75c-0.1-0.95,1.24-0.5,1.69-0.95c0.45-0.4,1.54-0.2,1.89-0.7c2.49-0.15,4.78-0.5,7.17-0.75
		c0.4-0.05,0.75-0.45,0.95-0.7c0.15-0.2,0.1-0.5,0.25-0.7c0.35-0.45,1.39-1.24,1.89-1.94c1-1.19,1.74-2.54,2.64-3.83
		c0.85-0.6,0.75-2.09,2.39-1.89c1,0,0.2,1.69,0.75,2.14c-1.19,2.34-3.28,3.73-4.08,6.47c0.1,0.5,1.19,0.1,1.69,0.25
		c5.52-0.5,11.39-0.75,16.92-1.19c0.6,0.3,1.44,0.7,0.85,1.44c-1.24,0.1-2.29,0.25-2.24,0.2c-1.39-0.05-2.29,0.4-3.83,0.25
		c-1.04,0.6-1.99,0.2-3.33,0.7c-0.95,0.05-1.79,0-2.39-0.2c-1.64,0.75-1.74-0.05-3.38,0.45c-0.7,0.2-0.7,0.2-1.39,0
		c-0.45,0.2-0.9,0.4-1.44,0.5c-0.6,0.1-1.79-1-2.64,0c0.05,0.5-0.85,0.1-1.19,0.25c-0.55,1.39-1.84,2.09-2.39,3.58
		c-1.19,0.85-1.09,2.29-2.39,3.08c0.05,0.65-0.65,0.95-0.95,1.44c-0.35,0.5-0.35,1.29-0.95,1.64c-0.3,1.89-1.09,3.43-0.25,5.27
		c0.55,0.4,0.9,0.8,1.44,0.95c0.2,0.05,0.15,0.2,0.2,0.25c1.59,0.75,3.78,0,5.52-0.25c0.75-0.2,1.94-0.4,2.74-1.09
		c0.05-0.05,1.34-0.7,1.39-0.7c0.4-0.2,0.7-0.55,1.14-0.75c0.4-0.15,1.04-0.15,1.44-0.25c0.25-0.55,1.14-0.4,1.84-0.5
		C373.86,332.57,372.91,333.02,373.36,333.57z"/>
	<path d="M435.81,326.4c-1.34,2.04-2.94,1.39-4.93,2.24c-1.89,0.3-3.18,0.8-4.98,1.19c-0.55,0.1-1.29-0.05-1.69,0.5
		c-0.55-0.2-1.19-0.25-1.64-0.5c-0.95,0.6-1.44,2.44-2.19,3.33c-1.84,2.24-6.12,5.32-9.7,5.32c-1.99,0-2.69-1.99-2.69-3.93
		c0-1.79,0.75-3.68,0.95-5.22c-1.09,0.1-1.49,0.95-2.14,1.44c-0.7,0.55-1.39,1.09-2.14,1.44c-0.9,0.9-1.59,1.94-2.89,2.39
		c-0.65,1.04-2.09,1.24-2.89,2.14c-2.24,0.55-4.48,2.29-6.97,2.29c-0.6,0-1.19-0.1-1.84-0.35c-0.55-0.85-0.8-1.74-0.8-2.64
		c0-0.6,0.1-1.14,0.3-1.69c0.45-0.45,0.15-0.9,0.5-1.64c0.05-0.15,0.4-0.4,0.45-0.5c0.2-0.4,0.1-0.65,0.25-0.95
		c0.1-0.2,0.45-0.35,0.5-0.5c0.2-0.45,0.05-1.14,0.45-1.44c0.3-0.75,0.8-1.34,1.19-2.14c0.1-0.15,0.1-0.5,0.25-0.7
		c0.05-0.1,0.45-0.15,0.5-0.25c0.15-0.35,0.2-0.55,0.45-0.95c0.25-0.35,0.75-0.65,0.75-1.19c0.05,0.05,0.15,0.05,0.2,0.05
		c0.65,0,2.64-3.28,4.38-3.28c0.55,0,1.39,0.5,1.39,1.09c0,0.5-1.29,1.89-1.44,1.89c-0.4,0.25-2.54,1.94-3.33,2.89
		c-0.55,0.6-0.7,1.44-1.44,1.89c-0.75,2.69-2.39,4.48-2.89,7.41c0.35,0.3,0.7,0.4,1.09,0.4c1.04,0,2.09-1,3.23-1.14
		c1.04-0.4,1.69-1.29,3.08-1.39c0.9-0.55,1.64-1.29,2.64-1.69c0.45-0.6,2.99-2.89,3.23-2.89c0.5,0,4.18-3.13,4.88-4.28
		c0.95-1.54,2.79-3.83,4.08-3.83c0,0.45,0.5,0.1,0.5,0.35c0,0.1-0.05,0.25-0.05,0.35c0,0.25,0.4,0.45,0.4,0.85
		c0,0.75-0.65,1.04-1.09,1.79c-1.84,4.28-3.13,6.92-3.13,9.95c0,0.9,0.05,1.49,1.44,1.49c1.29,0,0.95-0.55,1.44-0.9
		c0.3-0.2,0.65-0.05,0.95-0.25c0.15-0.1,0.55-0.6,0.75-0.75c2.19-1.39,4.53-3.43,5.72-6.17c-0.05-0.85-0.3-1.54-0.3-2.49
		c0-1,0.45-1.94,1-2.54c0.1-0.85,0.4-1.54,1.19-1.69c1.09,0.25,1.34,0.95,1.34,1.89c0,1.09-0.35,2.49-0.35,3.63
		c0.3,0.5,0.75,0.65,1.24,0.65c2.39,0,4.23-1.09,7.07-1.64c0.85-0.35,2.14-1.14,3.23-1.14C435.96,324.61,435.66,325.76,435.81,326.4
		z"/>
	<path d="M450.99,331.98c-0.75,1.19-7.36,5.12-11.1,5.37c-3.13,0.2-6.02-0.55-7.91-1.84c-1.14-0.15-1.54-1.49-1.44-2.39
		c-0.2-1-0.5-2.24-0.2-3.38c0,0,0.2-0.1,0.2-0.25c0.15-0.5,0.95-2.89,1.54-3.13c0.25-0.7,0.5-1.44,1.19-1.69
		c0.55-1.34,1.89-1.94,2.59-3.08c1.34-0.6,2.64-1.19,3.58-2.19c1.74,0.15,2.44-0.75,4.08-0.7c0.7,0.55,0.75,1.19,0.7,2.14
		c0,0.4-0.1,0.3-0.2,0.5c-0.2,0.35-0.1,1.19-0.5,1.64c0,1.94-1.84,4.08-1.99,5.82c-0.7,0.35-1.19,1.39-1.64,1.94
		c-0.45,0.55-1.14,0.75-1.44,1.39c-1.14,0.4-1.74,1.29-2.89,1.69c0.75,0.65,1.94,0.95,2.64,1.14h0.5c2.64-0.15,6.57-1.79,8.66-3.33
		c0.45-0.35,1.44-0.85,1.89-1.04c0.45-0.15,1.39-0.65,1.89-0.65C451.14,330.03,451.14,331.73,450.99,331.98z M439.69,322.02
		c-1.44,0.8-2.24,2.29-3.58,2.89c-0.9,1.64-3.13,4.48-3.18,7.02c0.75,0.05,1.64-0.35,1.94-0.5c0.6-0.35,0.95-0.55,1.44-0.95
		c1.49-1.19,3.43-4.63,4.33-6.07c0.45-0.7,1-1.44,1-2.39c-0.05-0.15-0.05-0.45-0.25-0.45C440.74,322.02,440.09,321.82,439.69,322.02
		z"/>
	<path d="M489.8,331.98c-0.75,1.19-7.36,5.12-11.1,5.37c-3.13,0.2-6.02-0.55-7.91-1.84c-1.14-0.15-1.54-1.49-1.44-2.39
		c-0.2-1-0.5-2.24-0.2-3.38c0,0,0.2-0.1,0.2-0.25c0.15-0.5,0.95-2.89,1.54-3.13c0.25-0.7,0.5-1.44,1.19-1.69
		c0.55-1.34,1.89-1.94,2.59-3.08c1.34-0.6,2.64-1.19,3.58-2.19c1.74,0.15,2.44-0.75,4.08-0.7c0.7,0.55,0.75,1.19,0.7,2.14
		c0,0.4-0.1,0.3-0.2,0.5c-0.2,0.35-0.1,1.19-0.5,1.64c0,1.94-1.84,4.08-1.99,5.82c-0.7,0.35-1.19,1.39-1.64,1.94
		c-0.45,0.55-1.14,0.75-1.44,1.39c-1.14,0.4-1.74,1.29-2.89,1.69c0.75,0.65,1.94,0.95,2.64,1.14h0.5c2.64-0.15,6.57-1.79,8.66-3.33
		c0.45-0.35,1.44-0.85,1.89-1.04c0.45-0.15,1.39-0.65,1.89-0.65C489.95,330.03,489.95,331.73,489.8,331.98z M478.51,322.02
		c-1.44,0.8-2.24,2.29-3.58,2.89c-0.9,1.64-3.13,4.48-3.18,7.02c0.75,0.05,1.64-0.35,1.94-0.5c0.6-0.35,0.95-0.55,1.44-0.95
		c1.49-1.19,3.43-4.63,4.33-6.07c0.45-0.7,1-1.44,1-2.39c-0.05-0.15-0.05-0.45-0.25-0.45C479.55,322.02,478.91,321.82,478.51,322.02
		z"/>
	<path d="M520.01,329.44c-0.85,0.45-1.79,1.69-2.59,2.09c-0.85,0.4-0.65,0.75-1.49,1.19c-0.85,0.45-1.49,1.09-2.34,1.54
		c-0.45,0.2-1,0.2-1.44,0.45c-0.5,0.3-0.6,0.55-1.19,0.5c-0.85,0.85-2.39,0.6-3.08,1.59c-1.74,0.2-2.94,0.1-4.58,0.4
		c0-0.5-1-0.1-1.39-0.25c-0.05-0.6-0.95-0.35-1-0.95c-0.45-0.05-0.05-1.04-0.7-0.95c-0.7-0.1-0.9,0.6-1.44,0.7
		c-0.65,0.2-1.59,0.7-2.39,1.19c-0.35,0.25-1.64,0.5-2.39,1c-0.35,0.2-2.29,0.75-3.08,0.7c0.1,0-0.7-0.5-1.19-0.25
		c-1.14-1.04-1.74-2.64-1.19-4.78c0.6-0.65,0.95-1.59,1.19-2.64c0.75-0.65,1.19-1.64,1.89-2.39c1.19-1.49,2.79-2.64,4.08-4.03
		c0.85-0.55,1.64-1.09,2.14-1.94c1.24-0.05,1.59-0.95,2.39-1.39c0.95-0.45,2.14-0.6,2.64-1.44c2.19-0.3,3.58-1.39,5.72-1.69
		c1.74,0.35,2.49,2.09,1.89,4.08c-0.4,0.45-0.7,1-1.39,1.19c0.1,0.5-0.5,0.35-0.5,0.7c-0.05,0.35-0.6,0.2-0.95,0.25
		c-0.9-1.24,0.65-1.79,0.7-2.89c-1.19-0.6-2.04,0.5-3.58,0.25c-0.7,0.5-1.64,0.6-2.39,0.95c-0.7,0.4-1.09,1.04-1.89,1.19
		c-1.34,0.8-2.24,2.09-3.83,2.64c-0.65,0.95-1.39,1.79-2.14,2.64c-0.6,0.2-0.75,0.85-1.19,1.19s-0.5,1.09-1.19,1.19
		c-0.4,1.54-1.29,2.49-1.44,4.28c1.44,0.85,2.74-0.4,4.08-0.45c0-0.45,0.4-0.3,0.7-0.5c0.3-0.15,0.45-0.3,0.7-0.45
		c0.45-0.25,1.49-0.25,1.44-1c0.6,0.05,1.14,0.05,1.44-0.25c0.55-0.05,0.45-0.8,1.19-0.7c0.2-1,0.85-1.54,0.95-2.64
		c0.5-0.55,1.19-0.9,1.19-1.89c1.94-0.65,1.99-3.13,4.78-2.89c0.6,0.25,0.6,1.04,0.95,1.44c0.15,1.49-1.14,1.54-1.19,2.89
		c-0.75,0.4-1.19,1.19-1.64,1.89c-0.65,0.25-1,0.75-1.44,1.19c-0.35,0.35-1.29,0.5-0.95,1.44c-0.25,0.85,1.04,0.25,1.19,0.7
		c0.4-0.2,1-0.1,1.44-0.2c0.8-0.25,1.39-0.05,2.14-0.45c0.75-0.35,1.64-0.6,2.39-0.95c1.44-0.65,2.84-1.24,4.28-1.89
		c0.6-0.7,1.29-1.04,1.99-1.44c1-0.55,1.84-1.24,2.99-1.89C519.26,327.75,519.86,329.49,520.01,329.44z"/>
	<path d="M535.93,333.57c-1.19,0.55-1.74,1.19-2.54,1.59c-0.5,0.25-1.34,1-2.14,1.24c-0.15,0-0.9,0.35-1.04,0.45
		c-0.3,0.1-0.35,0.3-0.95,0.45c-0.3,0.1-1.19,0.4-1.64,0.5c-0.75,0.2,0.05-0.15-1,0.1c-0.5,0.1-0.95,0.2-1.44,0.5
		c-1.04-0.45-2.84-0.2-4.28-0.25c-0.3-0.5-1.04-0.55-1.69-0.75c-0.6-1-1.89-1.89-2.14-3.58c-0.2-1.24,0.15-2.49,0.5-3.78
		c0.6-1.24,0.95-3.43,1.64-4.08c1.19-1.94,1.99-4.28,3.38-5.97c-0.35-0.4-1.19-0.35-1.94-0.25c-0.55,0.1-1.74,0.35-2.84,0.5
		c-1.54,0.15-3.58,0.9-4.08-0.75c-0.1-0.95,1.24-0.5,1.69-0.95c0.45-0.4,1.54-0.2,1.89-0.7c2.49-0.15,4.78-0.5,7.17-0.75
		c0.4-0.05,0.75-0.45,0.95-0.7c0.15-0.2,0.1-0.5,0.25-0.7c0.35-0.45,1.39-1.24,1.89-1.94c1-1.19,1.74-2.54,2.64-3.83
		c0.85-0.6,0.75-2.09,2.39-1.89c1,0,0.2,1.69,0.75,2.14c-1.19,2.34-3.28,3.73-4.08,6.47c0.1,0.5,1.19,0.1,1.69,0.25
		c5.52-0.5,11.4-0.75,16.92-1.19c0.6,0.3,1.44,0.7,0.85,1.44c-1.24,0.1-2.29,0.25-2.24,0.2c-1.39-0.05-2.29,0.4-3.83,0.25
		c-1.04,0.6-1.99,0.2-3.33,0.7c-0.95,0.05-1.79,0-2.39-0.2c-1.64,0.75-1.74-0.05-3.38,0.45c-0.7,0.2-0.7,0.2-1.39,0
		c-0.45,0.2-0.9,0.4-1.44,0.5c-0.6,0.1-1.79-1-2.64,0c0.05,0.5-0.85,0.1-1.19,0.25c-0.55,1.39-1.84,2.09-2.39,3.58
		c-1.19,0.85-1.09,2.29-2.39,3.08c0.05,0.65-0.65,0.95-0.95,1.44c-0.35,0.5-0.35,1.29-0.95,1.64c-0.3,1.89-1.09,3.43-0.25,5.27
		c0.55,0.4,0.9,0.8,1.44,0.95c0.2,0.05,0.15,0.2,0.2,0.25c1.59,0.75,3.78,0,5.52-0.25c0.75-0.2,1.94-0.4,2.74-1.09
		c0.05-0.05,1.34-0.7,1.39-0.7c0.4-0.2,0.7-0.55,1.14-0.75c0.4-0.15,1.04-0.15,1.44-0.25c0.25-0.55,1.14-0.4,1.84-0.5
		C536.43,332.57,535.48,333.02,535.93,333.57z"/>
	<path d="M557.93,336.06c-0.75,0-0.8,0.65-1.64,0.5c-0.85,0.35-1.14,1.24-1.69,1.89h-1.19c-1.29-1.49,0.45-3.28,1.19-4.28
		C556.19,333.67,558.42,333.77,557.93,336.06z M577.78,306.95c-0.55,1.29-1.69,1.94-2.64,2.84c-0.25,1.04-1.19,1.39-1.44,2.39
		c-1.24,0.7-1.99,1.89-2.89,2.89c-0.45,0.5-0.95,0.95-1.39,1.44c-0.45,0.45-0.65,1.34-1.44,1.44c-0.7,1.59-2.04,2.74-3.13,4.03
		s-2.04,2.69-3.08,4.08c-0.6,0.3,0.2,1.39-0.25,1.44c-0.3,0.5-1.79,0.7-2.39,0.2c-0.5-1.24,0.3-1.69,0.75-2.59
		c0.5-0.7,0.9-1.49,1.19-2.39c0.55-0.1,0.5-0.75,0.95-1c0.6,0,0.35-0.9,0.7-1.19c2.04-1.79,3.33-4.28,5.27-6.17
		c2.59-2.84,4.93-5.92,7.61-8.61C576.98,305.45,577.28,306.3,577.78,306.95z"/>
</g>
</svg>
